<?xml version="1.0" encoding="UTF-8" standalone="no"?>
<svg
   xmlns:dc="http://purl.org/dc/elements/1.1/"
   xmlns:cc="http://creativecommons.org/ns#"
   xmlns:rdf="http://www.w3.org/1999/02/22-rdf-syntax-ns#"
   xmlns:svg="http://www.w3.org/2000/svg"
   xmlns="http://www.w3.org/2000/svg"
   xmlns:sodipodi="http://sodipodi.sourceforge.net/DTD/sodipodi-0.dtd"
   xmlns:inkscape="http://www.inkscape.org/namespaces/inkscape"
   viewBox="0 0 48 48"
   width="48px"
   height="48px"
   version="1.1"
   id="svg8"
   sodipodi:docname="preferences-applications-restart.svg"
   inkscape:version="0.92.3 (2405546, 2018-03-11)">
  <metadata
     id="metadata14">
    <rdf:RDF>
      <cc:Work
         rdf:about="">
        <dc:format>image/svg+xml</dc:format>
        <dc:type
           rdf:resource="http://purl.org/dc/dcmitype/StillImage" />
      </cc:Work>
    </rdf:RDF>
  </metadata>
  <defs
     id="defs12" />
  <sodipodi:namedview
     pagecolor="#ffffff"
     bordercolor="#666666"
     borderopacity="1"
     objecttolerance="10"
     gridtolerance="10"
     guidetolerance="10"
     inkscape:pageopacity="0"
     inkscape:pageshadow="2"
     inkscape:window-width="1328"
     inkscape:window-height="737"
     id="namedview10"
     showgrid="false"
     inkscape:zoom="9.8333333"
     inkscape:cx="14.504812"
     inkscape:cy="22.849667"
     inkscape:window-x="38"
     inkscape:window-y="0"
     inkscape:window-maximized="1"
     inkscape:current-layer="svg8" />
  <path
     style="fill:#828eab;fill-opacity:1"
     d="M 23.59375 3.40625 A 21 21 0 0 0 23.59375 45.40625 A 21 21 0 0 0 23.59375 3.40625 z M 12 13 L 21 13 L 21 22 L 17.751953 18.751953 C 16.525444 20.191629 15.796875 22.057796 15.796875 23.998047 C 15.796875 28.398047 19.396875 31.998047 23.796875 31.998047 C 28.196875 31.998047 31.796875 28.398047 31.796875 23.998047 C 31.796875 21.898047 30.995703 19.998047 29.595703 18.498047 L 32.496094 15.798828 C 34.596094 17.898828 35.796875 20.898047 35.796875 23.998047 C 35.796875 30.598047 30.396875 35.998047 23.796875 35.998047 C 17.196875 35.998047 11.796875 30.598047 11.796875 23.998047 C 11.796875 20.98979 12.92666 18.131537 14.927734 15.927734 L 12 13 z M 14.927734 15.927734 L 17.751953 18.751953 C 18.042579 18.410817 18.352454 18.086171 18.697266 17.798828 L 16.197266 14.699219 C 15.737021 15.077277 15.321358 15.494233 14.927734 15.927734 z "
     id="path2" />
</svg>
