<?xml version="1.0" encoding="UTF-8" standalone="no"?>
<svg
   xmlns:dc="http://purl.org/dc/elements/1.1/"
   xmlns:cc="http://creativecommons.org/ns#"
   xmlns:rdf="http://www.w3.org/1999/02/22-rdf-syntax-ns#"
   xmlns:svg="http://www.w3.org/2000/svg"
   xmlns="http://www.w3.org/2000/svg"
   xmlns:sodipodi="http://sodipodi.sourceforge.net/DTD/sodipodi-0.dtd"
   xmlns:inkscape="http://www.inkscape.org/namespaces/inkscape"
   fill="#828eab"
   height="48"
   version="1.1"
   viewBox="0 0 48 48"
   width="48"
   id="svg16"
   sodipodi:docname="system-file-manager-fedora.svg"
   inkscape:version="0.92.3 (2405546, 2018-03-11)">
  <metadata
     id="metadata22">
    <rdf:RDF>
      <cc:Work
         rdf:about="">
        <dc:format>image/svg+xml</dc:format>
        <dc:type
           rdf:resource="http://purl.org/dc/dcmitype/StillImage" />
      </cc:Work>
    </rdf:RDF>
  </metadata>
  <defs
     id="defs20" />
  <sodipodi:namedview
     pagecolor="#ffffff"
     bordercolor="#666666"
     borderopacity="1"
     objecttolerance="10"
     gridtolerance="10"
     guidetolerance="10"
     inkscape:pageopacity="0"
     inkscape:pageshadow="2"
     inkscape:window-width="1328"
     inkscape:window-height="737"
     id="namedview18"
     showgrid="false"
     inkscape:zoom="4.9166667"
     inkscape:cx="-36.101695"
     inkscape:cy="24"
     inkscape:window-x="38"
     inkscape:window-y="0"
     inkscape:window-maximized="1"
     inkscape:current-layer="svg16" />
  <path
     d="M 20 5 L 16 9 L 16 13 L 8 13 C 5.79 13 4.0195312 14.79 4.0195312 17 L 4 39 C 4 41.21 5.79 43 8 43 L 40 43 C 42.21 43 44 41.21 44 39 L 44 17 C 44 14.79 42.21 13 40 13 L 32 13 L 32 9 L 28 5 L 20 5 z M 20 9 L 28 9 L 28 13 L 20 13 L 20 9 z M 27.6875 18.003906 C 28.141274 18.003906 28.464719 18.056982 28.884766 18.171875 C 29.497256 18.3396 29.997838 18.865338 29.998047 19.476562 C 29.998047 19.669365 29.959735 19.844507 29.894531 20.003906 C 31.056678 20.773111 31.835937 22.119692 31.835938 23.664062 C 31.835938 25.816114 30.331764 27.590422 28.367188 27.931641 C 28.368531 27.956741 28.375 27.980379 28.375 28.005859 C 28.375346 28.744614 27.804917 29.326172 27.097656 29.326172 L 24.830078 29.326172 L 24.830078 32.330078 C 24.830078 35.459776 22.405039 37.996094 19.414062 37.996094 C 18.960289 37.996094 18.636844 37.943018 18.216797 37.828125 C 17.604307 37.6604 17.103724 37.134663 17.103516 36.523438 C 17.103516 36.331631 17.140523 36.154872 17.205078 35.996094 C 16.043597 35.22675 15.265625 33.879778 15.265625 32.335938 C 15.265625 30.184579 16.768776 28.410398 18.732422 28.068359 C 18.731078 28.043259 18.724609 28.019621 18.724609 27.994141 C 18.724263 27.255387 19.296645 26.673828 20.003906 26.673828 L 22.271484 26.673828 L 22.271484 23.669922 C 22.271484 20.540224 24.696524 18.003906 27.6875 18.003906 z M 22.271484 26.673828 L 22.271484 27.996094 L 23.541016 27.996094 L 23.541016 26.673828 L 22.271484 26.673828 z M 23.541016 26.673828 L 24.830078 26.673828 L 24.830078 28.003906 L 27.6875 28.003906 C 27.920202 28.003906 28.144897 27.970249 28.367188 27.931641 C 28.32981 27.233498 27.78675 26.6875 27.111328 26.6875 L 25.232422 26.6875 C 25.009473 26.6875 24.828125 26.498533 24.828125 26.265625 L 24.828125 23.666016 C 24.830891 22.015942 26.110619 20.679688 27.6875 20.679688 C 28.221655 20.679688 28.354134 20.751953 28.71875 20.751953 C 29.284916 20.751953 29.70988 20.455314 29.894531 20.003906 C 29.254011 19.579958 28.500927 19.324219 27.6875 19.324219 C 25.398208 19.324219 23.541016 21.26851 23.541016 23.664062 L 23.541016 26.673828 z M 24.830078 28.003906 L 23.560547 28.003906 L 23.560547 29.326172 L 24.830078 29.326172 L 24.830078 28.003906 z M 23.560547 29.326172 L 22.271484 29.326172 L 22.271484 27.996094 L 19.414062 27.996094 C 19.180699 27.996094 18.95531 28.029535 18.732422 28.068359 C 18.769799 28.766502 19.314812 29.3125 19.990234 29.3125 L 21.869141 29.3125 C 22.092091 29.3125 22.271484 29.501467 22.271484 29.734375 L 22.271484 32.333984 C 22.268718 33.984058 20.990944 35.320312 19.414062 35.320312 C 18.879908 35.320313 18.747429 35.248047 18.382812 35.248047 C 17.815614 35.248047 17.389178 35.543286 17.205078 35.996094 C 17.845849 36.420528 18.60013 36.675781 19.414062 36.675781 C 21.703354 36.675781 23.560547 34.73149 23.560547 32.335938 L 23.560547 29.326172 z M 23.560547 28.003906 L 23.560547 27.996094 L 23.541016 27.996094 L 23.541016 28.003906 L 23.560547 28.003906 z M 32.609375 36.408203 L 33.167969 36.408203 L 33.167969 36.541016 L 32.953125 36.541016 L 32.953125 37.201172 L 32.824219 37.201172 L 32.824219 36.541016 L 32.609375 36.541016 L 32.609375 36.408203 z M 33.292969 36.408203 L 33.421875 36.408203 L 33.632812 36.914062 L 33.839844 36.408203 L 33.970703 36.408203 L 33.970703 37.201172 L 33.847656 37.201172 L 33.847656 36.699219 L 33.628906 37.224609 L 33.416016 36.699219 L 33.416016 37.201172 L 33.292969 37.201172 L 33.292969 36.408203 z "
     id="path2" />
</svg>
